<?xml version="1.0" standalone="no"?>
<!DOCTYPE svg PUBLIC "-//W3C//DTD SVG 20010904//EN"
 "http://www.w3.org/TR/2001/REC-SVG-20010904/DTD/svg10.dtd">
<svg version="1.0" xmlns="http://www.w3.org/2000/svg"
 width="358.000000pt" height="335.000000pt" viewBox="0 0 358.000000 335.000000"
 preserveAspectRatio="xMidYMid meet">

<g transform="translate(0.000000,335.000000) scale(0.100000,-0.100000)"
stroke="none">
<path d="M73 3319 c-17 -11 -41 -39 -52 -63 -21 -42 -21 -52 -21 -1121 0
-1056 0 -1080 20 -1119 11 -23 36 -52 57 -66 l37 -25 537 -5 537 -5 27 -25
c15 -14 55 -61 88 -105 213 -280 589 -730 630 -756 72 -43 173 -12 208 65 17
37 19 71 19 379 0 365 0 366 55 417 l27 25 611 5 612 5 37 23 c21 13 45 40 57
66 21 42 21 50 21 1121 0 1056 0 1080 -20 1119 -11 23 -35 51 -53 64 l-33 22
-1685 0 c-1679 0 -1684 0 -1716 -21z m2892 -484 c32 -31 32 -69 0 -100 l-24
-25 -1161 0 -1161 0 -24 25 c-14 13 -25 36 -25 50 0 14 11 37 25 50 l24 25
1161 0 1161 0 24 -25z m-345 -637 c39 -42 19 -101 -41 -118 -46 -13 -1902 -13
-1948 0 -60 17 -80 76 -41 118 l21 22 994 0 994 0 21 -22z m-452 -628 c30 -28
30 -82 0 -110 -22 -20 -31 -20 -785 -20 l-764 0 -24 25 c-14 13 -25 36 -25 50
0 14 11 37 25 50 l24 25 764 0 c754 0 763 0 785 -20z"/>
</g>
</svg>
