<?xml version="1.0" standalone="no"?>
<!DOCTYPE svg PUBLIC "-//W3C//DTD SVG 20010904//EN"
 "http://www.w3.org/TR/2001/REC-SVG-20010904/DTD/svg10.dtd">
<svg version="1.0" xmlns="http://www.w3.org/2000/svg"
 width="512.000000pt" height="429.000000pt" viewBox="0 0 512.000000 429.000000"
 preserveAspectRatio="xMidYMid meet">

<g transform="translate(0.000000,429.000000) scale(0.100000,-0.100000)"
stroke="none">
<path d="M1335 3349 c-671 -517 -1246 -960 -1277 -984 l-58 -45 177 -229 177
-230 35 28 c20 16 516 398 1104 849 l1067 821 1068 -821 c587 -451 1083 -833
1103 -849 l35 -28 176 229 176 228 -21 20 c-12 10 -176 137 -364 282 l-343
262 0 464 0 464 -367 -2 -368 -3 -3 -172 c-1 -95 -5 -173 -8 -173 -3 0 -248
187 -544 415 -297 228 -541 415 -542 414 -2 0 -552 -423 -1223 -940z"/>
<path d="M1678 2502 l-878 -676 0 -908 0 -908 705 0 705 0 0 665 0 665 380 0
380 0 0 -665 0 -665 675 0 675 0 0 908 0 908 -876 675 c-482 371 -880 675
-883 676 -3 1 -401 -303 -883 -675z"/>
</g>
</svg>
