<?xml version="1.0" standalone="no"?>
<!DOCTYPE svg PUBLIC "-//W3C//DTD SVG 20010904//EN"
 "http://www.w3.org/TR/2001/REC-SVG-20010904/DTD/svg10.dtd">
<svg version="1.0" xmlns="http://www.w3.org/2000/svg"
 width="512.000000pt" height="512.000000pt" viewBox="0 0 512.000000 512.000000"
 preserveAspectRatio="xMidYMid meet">

<g transform="translate(0.000000,512.000000) scale(0.100000,-0.100000)"
stroke="none">
<path d="M3445 4650 c-1693 -506 -1613 -479 -1601 -545 7 -33 39 -65 65 -65
10 0 546 157 1191 350 646 192 1175 348 1177 346 2 -1 -223 -121 -500 -266
-276 -145 -869 -456 -1319 -691 l-816 -429 -234 121 c-431 224 -483 251 -491
258 -4 4 142 52 325 107 190 56 340 107 350 117 35 34 14 108 -35 121 -30 7
-881 -246 -908 -270 -22 -20 -25 -72 -7 -96 7 -9 216 -121 463 -249 248 -127
454 -235 459 -239 4 -5 44 -322 87 -707 43 -384 81 -712 84 -730 7 -37 38 -63
74 -63 20 0 119 94 461 435 l435 435 437 -235 c290 -156 447 -235 467 -235 19
0 36 8 48 24 32 40 1453 2882 1453 2905 0 29 -43 71 -72 70 -13 0 -729 -211
-1593 -469z m748 -1118 c-350 -698 -623 -1231 -630 -1229 -18 3 -1112 591
-1112 597 0 3 276 223 614 490 388 306 618 495 625 511 9 21 8 33 -4 57 -16
31 -34 42 -70 42 -23 0 -114 -71 -944 -727 -402 -319 -424 -338 -447 -388 -78
-176 -369 -795 -372 -791 -2 2 -33 255 -68 562 -47 420 -60 562 -52 570 7 6
552 293 1212 639 660 345 1242 650 1293 677 50 27 92 48 92 45 0 -3 -104 -87
-231 -187 -127 -101 -236 -193 -241 -206 -21 -46 36 -113 84 -100 13 4 212
156 443 340 231 183 421 333 423 331 1 -1 -276 -556 -615 -1233z m-1737 -808
l104 -56 -79 -86 c-44 -48 -159 -166 -256 -262 l-176 -175 46 100 c198 426
249 535 252 535 2 0 51 -25 109 -56z"/>
<path d="M4115 1784 c-313 -55 -561 -210 -875 -545 -246 -262 -391 -401 -475
-457 -313 -208 -631 -244 -973 -112 -141 54 -308 167 -471 316 l-54 50 135
135 c222 221 250 270 192 324 -44 40 -61 33 -153 -67 -47 -51 -130 -136 -185
-189 l-101 -97 -47 42 c-192 166 -344 255 -483 283 -322 65 -636 -205 -612
-524 14 -183 139 -305 341 -334 206 -28 418 51 704 263 l93 69 92 -82 c263
-234 431 -329 682 -386 130 -30 332 -36 455 -14 171 31 343 105 489 209 120
86 208 170 405 386 235 258 340 352 487 439 163 96 330 147 510 154 223 10
392 -48 524 -180 298 -298 177 -742 -242 -891 -143 -50 -225 -60 -458 -50
-364 15 -557 11 -650 -14 -177 -48 -309 -142 -362 -259 -22 -47 -27 -73 -27
-136 -1 -71 1 -81 23 -98 55 -45 121 -10 121 64 0 149 112 251 319 293 68 13
116 15 250 10 506 -19 524 -19 630 -2 343 54 591 241 676 508 93 292 -23 602
-288 775 -173 113 -436 159 -672 117z m-3496 -470 c89 -20 205 -87 327 -189
l95 -80 -28 -23 c-121 -100 -323 -214 -438 -248 -89 -26 -216 -24 -280 5 -136
60 -193 191 -137 314 41 93 165 190 283 221 70 19 96 19 178 0z"/>
</g>
</svg>
