<?xml version="1.0" standalone="no"?>
<!DOCTYPE svg PUBLIC "-//W3C//DTD SVG 20010904//EN"
 "http://www.w3.org/TR/2001/REC-SVG-20010904/DTD/svg10.dtd">
<svg version="1.0" xmlns="http://www.w3.org/2000/svg"
 width="488.000000pt" height="488.000000pt" viewBox="0 0 488.000000 488.000000"
 preserveAspectRatio="xMidYMid meet">

<g transform="translate(0.000000,488.000000) scale(0.100000,-0.100000)"
stroke="none">
<path d="M2140 4874 c-165 -20 -218 -28 -303 -45 -263 -54 -570 -183 -792
-332 -179 -121 -378 -299 -510 -457 -271 -326 -444 -714 -511 -1150 -22 -142
-25 -488 -6 -630 92 -667 461 -1257 1019 -1631 538 -362 1205 -477 1842 -318
181 45 304 92 501 191 163 82 179 88 235 88 103 -1 126 -17 395 -284 216 -214
253 -246 310 -271 57 -26 77 -30 160 -30 86 0 101 3 162 32 89 42 151 101 191
182 30 62 32 72 32 176 0 104 -2 114 -33 180 -29 61 -60 96 -267 305 -258 259
-274 282 -275 385 0 56 6 72 88 235 99 197 146 320 191 501 174 699 17 1434
-427 1994 -78 98 -241 264 -347 353 -312 262 -725 447 -1137 508 -99 14 -446
27 -518 18z m476 -823 c401 -82 743 -312 970 -651 360 -540 333 -1254 -66
-1769 -306 -393 -781 -612 -1274 -587 -700 35 -1268 524 -1418 1220 -18 85
-22 133 -21 296 0 170 3 210 25 310 63 286 195 534 397 744 251 259 562 412
941 460 85 11 348 -3 446 -23z"/>
</g>
</svg>
