<?xml version="1.0" standalone="no"?>
<!DOCTYPE svg PUBLIC "-//W3C//DTD SVG 20010904//EN"
 "http://www.w3.org/TR/2001/REC-SVG-20010904/DTD/svg10.dtd">
<svg version="1.0" xmlns="http://www.w3.org/2000/svg"
 width="428.000000pt" height="470.000000pt" viewBox="0 0 428.000000 470.000000"
 preserveAspectRatio="xMidYMid meet">

<g transform="translate(0.000000,470.000000) scale(0.100000,-0.100000)"
stroke="none">
<path d="M3308 4690 c-31 -5 -84 -16 -118 -25 -361 -93 -630 -450 -618 -818
l3 -97 -573 -382 c-408 -272 -577 -379 -586 -373 -204 155 -375 212 -600 202
-141 -7 -208 -23 -331 -81 -248 -117 -422 -348 -470 -621 -19 -110 -19 -180 0
-290 61 -346 328 -621 674 -690 101 -21 291 -16 386 10 83 22 231 96 293 144
28 23 55 41 59 41 4 0 264 -171 577 -379 l569 -379 -2 -94 c-5 -218 74 -417
229 -581 118 -125 252 -205 415 -248 112 -29 298 -30 410 0 300 78 533 307
621 611 29 100 27 337 -4 443 -83 287 -300 506 -587 593 -79 24 -108 27 -230
28 -116 0 -153 -3 -218 -22 -181 -52 -323 -142 -439 -280 l-36 -43 -535 356
-534 357 20 61 c30 90 30 344 0 434 l-20 61 533 356 534 356 72 -75 c418 -441
1146 -315 1393 242 67 149 88 372 51 526 -91 378 -403 640 -787 661 -52 2
-120 1 -151 -4z"/>
</g>
</svg>
